<svg width="101" height="101" viewBox="0 0 101 101" fill="none" xmlns="http://www.w3.org/2000/svg">
<path d="M50.2071 45.252C49.1519 45.252 48.1204 45.565 47.2431 46.1516C46.3658 46.7382 45.682 47.5719 45.2782 48.5473C44.8744 49.5227 44.7687 50.5961 44.9746 51.6316C45.1804 52.6671 45.6885 53.6183 46.4347 54.3648C47.1808 55.1114 48.1314 55.6198 49.1663 55.8258C50.2012 56.0317 51.2739 55.926 52.2487 55.522C53.2235 55.118 54.0568 54.4337 54.643 53.5559C55.2292 52.678 55.5421 51.6459 55.5421 50.5901C55.5421 49.8891 55.4041 49.195 55.136 48.5473C54.8679 47.8996 54.4749 47.3112 53.9795 46.8155C53.4841 46.3198 52.896 45.9266 52.2487 45.6583C51.6014 45.39 50.9077 45.252 50.2071 45.252Z" fill="white"/>
<path d="M96.5077 30.7152C93.9949 24.7269 90.3381 19.287 85.7424 14.7006C81.1847 10.0929 75.7616 6.43218 69.785 3.92892C59.0426 -0.586958 47.0666 -1.23119 35.9023 2.10626C24.738 5.44371 15.0779 12.5558 8.57185 22.2279C2.06577 31.9 -0.882719 43.5322 0.229945 55.1378C1.34261 66.7434 6.4474 77.6025 14.6725 85.8606C19.2437 90.5002 24.6603 94.2213 30.6299 96.823C36.7128 99.3961 43.2429 100.744 49.8469 100.791C56.4508 100.837 62.9992 99.5802 69.1175 97.0925C75.2357 94.6048 80.804 90.9348 85.5038 86.2923C90.2036 81.6499 93.9428 76.1261 96.5077 70.0367C99.116 63.8439 100.46 57.1915 100.46 50.4713C100.46 43.751 99.116 37.0986 96.5077 30.9058V30.7152ZM93.3638 32.0497C95.6622 37.6147 96.8749 43.5684 96.9364 49.5895L77.8828 45.5382L67.2128 43.2981L73.1194 34.1469L83.8847 17.6557C87.9026 21.8292 91.1162 26.709 93.3638 32.0497ZM59.2103 58.979L65.2122 57.7398L78.7402 78.5206L59.2103 58.979ZM78.5973 78.9972L57.5907 65.3181L58.8292 59.265L78.5973 78.9972ZM57.686 57.4538L55.9712 55.6903C57.2213 54.2852 57.9158 52.4717 57.9241 50.5904H90.5534L57.686 57.4538ZM58.9245 41.2486L57.6383 35.2908L78.4544 21.707L58.9245 41.2486ZM78.8831 21.8976L65.2122 42.8691L59.1626 41.6299L78.8831 21.8976ZM90.3629 50.0661H57.8765C57.7115 48.264 56.9191 46.577 55.6377 45.2999L57.6383 43.2981L90.3629 50.0661ZM68.4513 7.16996C73.7758 9.41176 78.6254 12.6468 82.7415 16.7024L66.2601 27.4265L57.162 33.3843L54.9232 22.7079L50.8267 3.64294C56.8386 3.6683 62.7896 4.84951 68.356 7.1223L68.4513 7.16996ZM50.4456 9.93438L57.3525 42.8691L55.3519 44.9186C54.0387 43.7341 52.3548 43.0433 50.5885 42.9644L50.4456 9.93438ZM41.5381 59.265L42.7766 65.2704L22.0081 78.8542L41.5381 59.265ZM21.5318 78.6636L35.0122 57.6445L41.0617 58.9313L21.5318 78.6636ZM10.0996 50.4951H42.5384C42.5126 52.4199 43.2291 54.2805 44.539 55.6903L42.8242 57.4062L10.0996 50.4951ZM10.0996 50.0661L42.9671 43.1074L45.0153 45.1569C43.7502 46.4454 42.9607 48.1262 42.7766 49.9231L10.0996 50.0661ZM41.4428 41.5822L35.4886 42.8214L21.6747 22.0406L41.4428 41.5822ZM22.1034 21.564L43.0624 35.2431L41.7762 41.2963L22.1034 21.564ZM43.3482 42.8214L50.2551 10.125V42.9168C48.4853 42.9794 46.796 43.6724 45.4917 44.8709L43.3482 42.8214ZM32.0113 7.1223C37.5509 4.74025 43.5112 3.49238 49.5406 3.45229L45.4917 22.5173L43.2529 33.146L34.1072 27.1882L17.6258 16.6548C21.7803 12.6017 26.6605 9.36782 32.0113 7.1223ZM7.0987 32.0497C9.34224 26.7237 12.575 21.8717 16.6255 17.751L27.3908 34.2422L33.2974 43.3457L22.675 45.5859L3.62142 49.6372C3.61261 43.6029 4.79428 37.6262 7.0987 32.0497ZM7.0987 68.5115C4.7294 62.9631 3.46724 57.0048 3.38326 50.9717L22.675 55.023L33.2974 57.2632L27.3431 66.4144L16.6255 82.9055C12.5695 78.753 9.3368 73.8687 7.0987 68.5115ZM32.0113 93.4389C26.6981 91.1761 21.8522 87.9435 17.7211 83.9065L34.0595 72.9918L43.2053 67.034L45.444 77.758L49.4929 96.823C43.5027 96.8277 37.5675 95.6788 32.0113 93.4389ZM50.0169 90.6269L43.0624 57.7398L44.7772 56.0239C46.1714 57.4163 48.0476 58.2184 50.0169 58.2641V90.6269ZM43.7769 50.5904C43.7769 49.3178 44.154 48.0738 44.8606 47.0156C45.5672 45.9575 46.5715 45.1328 47.7466 44.6458C48.9216 44.1588 50.2146 44.0314 51.462 44.2796C52.7094 44.5279 53.8552 45.1407 54.7546 46.0406C55.6539 46.9405 56.2663 48.087 56.5145 49.3351C56.7626 50.5833 56.6353 51.877 56.1485 53.0528C55.6618 54.2285 54.8376 55.2334 53.7801 55.9405C52.7226 56.6475 51.4793 57.0248 50.2074 57.0248C48.5058 57.0124 46.8774 56.3305 45.6741 55.1265C44.4708 53.9225 43.7893 52.2931 43.7769 50.5904ZM50.4456 58.2641C52.4004 58.216 54.2609 57.4133 55.6377 56.0239L57.3525 57.6921L50.4456 90.4362V58.2641ZM68.356 93.4389C62.7856 95.7762 56.8187 97.0221 50.7791 97.1089L54.8756 78.044L57.1144 67.4153L66.3077 72.9918L82.6462 83.9065C78.5109 87.9384 73.666 91.1702 68.356 93.4389ZM93.2686 68.5115C91.011 73.83 87.7799 78.6795 83.7418 82.8102L73.1194 66.4144L67.1651 57.3108L77.8828 55.0707L96.9364 51.0194C96.8759 57.0252 95.6631 62.9635 93.3638 68.5115H93.2686Z" fill="white"/>
</svg>
