<svg width="27" height="31" viewBox="0 0 27 31" fill="none" xmlns="http://www.w3.org/2000/svg">
<path d="M25.7253 19.9995C24.9833 19.4084 24.2413 18.8172 23.4993 18.2261C19.4044 15.449 17.3991 10.4551 18.1447 5.51001C18.3787 3.9983 18.544 2.67441 18.5465 1.50395C17.7927 2.39937 16.9358 3.5765 16.2667 4.82239C13.7369 9.11426 8.9811 11.6327 3.96723 11.0749C2.95943 10.9189 2.01115 10.8912 1.12239 10.9918C1.12239 10.9918 1.89877 11.489 2.92248 12.1833C7.3334 14.9696 9.62042 20.0667 8.71214 25.1652C8.44376 26.7708 8.24415 28.1886 8.3011 29.4873C9.18319 28.5324 9.94623 27.3209 10.778 25.9216C13.3766 21.4419 18.4141 19.0266 23.5814 19.747C24.9053 19.9123 25.7253 19.9995 25.7253 19.9995Z" stroke="#C5A23B" stroke-width="2.2248" stroke-miterlimit="10" stroke-linecap="round" stroke-linejoin="round"/>
</svg>
